PathFileType	4	(X/Y/Z)	./resultDataOpenSim/trcMotMarkerGrf/sub10/qtm-15-01.trc
DataRate	CameraRate	NumFrames	NumMarkers	Units	OrigDataRate	OrigDataStartFrame	OrigNumFrames
250.000000	250.000000	13	24	m	250.000000	283	452
Frame#	Time	L.Toe.Tip			R.Toe.Tip			L.Ankle.Lat			R.Ankle.Lat			L.Ankle.Med			R.Ankle.Med			L.Heel			R.Heel			L.Knee.Lat			R.Knee.Lat			L.Knee.Med			R.Knee.Med			L.Thigh.Upper			R.Thigh.Upper			L.ASIS			R.ASIS			V.Sacral			L.Acromium			R.Acromium			C7			L.Elbow			R.Elbow			L.Wrist.Lat			R.Wrist.Lat
		X1	Y1	Z1	X2	Y2	Z2	X3	Y3	Z3	X4	Y4	Z4	X5	Y5	Z5	X6	Y6	Z6	X7	Y7	Z7	X8	Y8	Z8	X9	Y9	Z9	X10	Y10	Z10	X11	Y11	Z11	X12	Y12	Z12	X13	Y13	Z13	X14	Y14	Z14	X15	Y15	Z15	X16	Y16	Z16	X17	Y17	Z17	X18	Y18	Z18	X19	Y19	Z19	X20	Y20	Z20	X21	Y21	Z21	X22	Y22	Z22	X23	Y23	Z23	X24	Y24	Z24

283	1.128	0.023471724	-0.051744141	-0.11276674	0.86055326	0.041226324	-0.019485468	-0.036895638	0.073989826	-0.1568548	0.72890711	0.056683494	0.040452797	0.0042151737	0.083414975	-0.083710074	0.72923567	0.075721586	-0.048941528	-0.086865341	0.099535894	-0.10316991	0.66903552	0.028816421	0.0062016306	0.18017039	0.39636042	-0.19571953	0.68708989	0.44354086	0.035287357	0.21620759	0.3525526	-0.08643225	0.66512004	0.4425746	-0.088785899	0.31795985	0.75898313	-0.23631186	0.51914392	0.80527275	0.10622811	0.43019611	0.85060209	-0.21052789	0.536763	0.87356165	0.0040921792	0.31287602	0.90176566	-0.012958472	0.49786105	1.3708272	-0.17974802	0.44559671	1.38154	0.062348558	0.41991149	1.3775908	-0.067322538	0.51724696	1.2424965	-0.49153685	0.1992568	1.3188235	0.25834347	0.75494979	1.3165653	-0.55756051	0.16581211	1.4431043	0.47549392
284	1.132	0.024925832	-0.050178138	-0.11368265	0.86073564	0.040793396	-0.02000286	-0.032072218	0.077266586	-0.15778288	0.72939738	0.057066849	0.040085044	0.0088190878	0.086226067	-0.08446642	0.72919831	0.075729881	-0.049375978	-0.081975218	0.10392591	-0.10455659	0.6693642	0.028971492	0.0061932491	0.18906865	0.39621659	-0.19688885	0.69634193	0.44626373	0.032706771	0.22541645	0.35154465	-0.088116336	0.66972692	0.44336663	-0.090177875	0.32673503	0.75865638	-0.23615588	0.52843755	0.8047562	0.10571808	0.43886061	0.85048487	-0.21034372	0.54440136	0.87277796	0.0039929956	0.32122259	0.90196578	-0.012584594	0.50486831	1.3707497	-0.17923806	0.45269885	1.3810615	0.063165551	0.42715816	1.3770055	-0.066355053	0.52118185	1.2413521	-0.49103964	0.20663363	1.3169564	0.25857524	0.75950102	1.3149273	-0.55928584	0.17136287	1.4420006	0.47510074
285	1.136	0.026342124	-0.048444859	-0.11469474	0.86100164	0.0405046	-0.020514233	-0.027059577	0.08063033	-0.1586193	0.72959516	0.057525599	0.039654057	0.013556599	0.089133946	-0.085153127	0.72897151	0.07585978	-0.049762696	-0.076919099	0.10845712	-0.1057706	0.66961397	0.029129235	0.0060636782	0.19834071	0.39593243	-0.19807758	0.70585118	0.44911604	0.030105638	0.23487764	0.35053555	-0.089743522	0.67481785	0.44494028	-0.091720957	0.33545588	0.75821716	-0.23622386	0.53731823	0.80441086	0.10527497	0.4473775	0.85041817	-0.21014126	0.5519644	0.87200014	0.0039809026	0.32931269	0.90228816	-0.012460758	0.5119184	1.370613	-0.1788539	0.45978097	1.3805677	0.064009778	0.43421242	1.3766494	-0.065564071	0.5250458	1.2400279	-0.49049509	0.21407535	1.314897	0.25901191	0.76357519	1.313106	-0.5611387	0.17698581	1.4407033	0.47480351
286	1.14	0.027682916	-0.046644663	-0.11586565	0.86148999	0.040231615	-0.020789902	-0.021898111	0.084087119	-0.15938106	0.72940261	0.058054639	0.039167099	0.018433426	0.092127326	-0.085785797	0.72897591	0.076010161	-0.050159424	-0.07166373	0.11319471	-0.10680671	0.6698806	0.029328112	0.0057887155	0.20801499	0.39552094	-0.19930928	0.71550238	0.45176302	0.027518537	0.24460911	0.34954808	-0.091303058	0.68049412	0.4470322	-0.09340821	0.34413233	0.75768371	-0.23644636	0.5457273	0.80422224	0.10494441	0.455742	0.8503958	-0.20991317	0.55949028	0.87124985	0.0040444078	0.33723118	0.90269459	-0.012516917	0.51900336	1.3704313	-0.17861228	0.4668393	1.3800757	0.064871481	0.44113772	1.376481	-0.064961731	0.52884015	1.2385581	-0.48986587	0.2215647	1.3126567	0.25957811	0.76718369	1.3111029	-0.56312279	0.18268136	1.4391991	0.4746099
287	1.144	0.02895669	-0.044779348	-0.11721987	0.86211243	0.039946407	-0.02081983	-0.01663363	0.087679103	-0.16009585	0.72869213	0.058546715	0.038684444	0.02345245	0.095217199	-0.086372965	0.72939485	0.076110029	-0.050555238	-0.066171521	0.11820561	-0.10766477	0.67014672	0.029550076	0.0054385807	0.2181047	0.39497939	-0.20061088	0.72516553	0.45406071	0.025001427	0.25461741	0.34860329	-0.092801559	0.68676795	0.44938098	-0.095183697	0.35279452	0.75708281	-0.23673841	0.55364761	0.8041235	0.10475583	0.46396597	0.85041544	-0.20965474	0.56700513	0.87055729	0.0041753057	0.34492219	0.90310547	-0.012690367	0.52611782	1.3702182	-0.17851977	0.47388139	1.3796039	0.065748258	0.44802041	1.3764349	-0.064502002	0.53257195	1.23693	-0.48918022	0.2291261	1.3102654	0.26014563	0.77050173	1.308871	-0.5652046	0.18845708	1.437483	0.47453361
288	1.148	0.030208732	-0.042692403	-0.11869878	0.86268558	0.039688446	-0.020719484	-0.011307445	0.091466921	-0.16078703	0.72763427	0.05885166	0.038286557	0.028625592	0.098416911	-0.086923141	0.73005494	0.076145442	-0.050869621	-0.060403458	0.12353229	-0.10833819	0.67035859	0.029760347	0.0051322467	0.22857331	0.39429252	-0.20198345	0.73464695	0.45587815	0.022657523	0.2648892	0.34770287	-0.094269243	0.69354451	0.4517753	-0.096987491	0.36145351	0.75643966	-0.23706745	0.56109629	0.80404034	0.10471174	0.47207442	0.85046955	-0.20937023	0.57452246	0.86995207	0.0043683537	0.35229083	0.90345972	-0.012957282	0.53326194	1.3699786	-0.17857636	0.48093001	1.3791689	0.066643859	0.4549507	1.3764342	-0.064080555	0.53626199	1.2350675	-0.48852101	0.23677468	1.3077362	0.26064137	0.77366982	1.3063791	-0.56735317	0.19433036	1.4355455	0.47459407
289	1.152	0.031506213	-0.040183362	-0.12017557	0.86308801	0.039487898	-0.020584728	-0.0059479344	0.095511247	-0.16146428	0.72667798	0.058910558	0.038045241	0.033966938	0.10174039	-0.087446057	0.73064435	0.07612858	-0.051026434	-0.054334502	0.12918677	-0.10882716	0.6704882	0.029927122	0.0049750471	0.23935479	0.39345249	-0.20341705	0.74370466	0.45704733	0.020635901	0.27539536	0.34682312	-0.095750281	0.70066822	0.45405786	-0.098779311	0.37009982	0.7557721	-0.23742837	0.56811356	0.80391785	0.10479553	0.48009702	0.85053905	-0.20906737	0.58204686	0.86945809	0.0046257076	0.35932341	0.90373564	-0.013316637	0.5404393	1.3697114	-0.17877549	0.48801047	1.378782	0.067561451	0.46196885	1.3764425	-0.063619621	0.53993377	1.2328967	-0.48793577	0.24446239	1.3050352	0.26115097	0.7767457	1.3036078	-0.56954717	0.2003154	1.4333665	0.47481028
290	1.156	0.032941463	-0.037134202	-0.12153454	0.86332835	0.039335222	-0.020437692	-0.00055709156	0.099858752	-0.16212471	0.72617085	0.058789661	0.037984125	0.039479298	0.10522378	-0.087947528	0.73101808	0.076062132	-0.051025152	-0.047972111	0.13515636	-0.10916095	0.67055055	0.030038706	0.0050057311	0.25043227	0.3924627	-0.20494602	0.75209374	0.45743864	0.019089998	0.28610113	0.34593388	-0.097284929	0.70799998	0.45610705	-0.10052649	0.37871637	0.75509612	-0.23781561	0.57475119	0.80373429	0.10499303	0.48805511	0.85060134	-0.20875203	0.58956883	0.86909644	0.004955694	0.36609365	0.90393943	-0.013774691	0.54765066	1.3694213	-0.17910135	0.49512917	1.3784528	0.068494856	0.46904827	1.3764877	-0.063124002	0.54359598	1.2304125	-0.48739632	0.25210589	1.3020844	0.26184921	0.77972238	1.3005407	-0.57177576	0.20641162	1.4309256	0.47519426
291	1.16	0.034651771	-0.033507236	-0.12273113	0.86348889	0.039204668	-0.020269138	0.0049015174	0.10453202	-0.16275739	0.72611992	0.058594982	0.038058935	0.045147798	0.10894178	-0.08842923	0.73125928	0.07594046	-0.050934053	-0.041367045	0.14140443	-0.10940953	0.67058705	0.030121186	0.0051707873	0.26182179	0.39133128	-0.20663108	0.75962595	0.45705615	0.018110307	0.29697696	0.34502263	-0.098894496	0.71545916	0.45781678	-0.10217273	0.3872876	0.75443102	-0.23822769	0.58106127	0.80350832	0.10530628	0.49595465	0.8506445	-0.2084288	0.59705691	0.86888881	0.0053626826	0.37270481	0.9040777	-0.014347433	0.55488593	1.3691269	-0.1795311	0.50226854	1.3781968	0.069425547	0.47614387	1.3766185	-0.062637362	0.54724188	1.2276639	-0.48685403	0.25967659	1.2988223	0.26281133	0.78257	1.2971699	-0.57403583	0.21260908	1.4282108	0.47574771
292	1.164	0.036806447	-0.02929002	-0.12376748	0.86363997	0.039083029	-0.020091154	0.010501943	0.10952339	-0.16335139	0.72633759	0.058396363	0.038187456	0.050948326	0.1129875	-0.088897476	0.73151924	0.075769863	-0.050834873	-0.034598442	0.14786815	-0.10967314	0.67063476	0.030220461	0.005362269	0.27347193	0.39007921	-0.20847278	0.76623495	0.45606513	0.017670442	0.30800851	0.34409774	-0.10057644	0.72301888	0.45909262	-0.10362758	0.39580589	0.75379405	-0.23866459	0.58709279	0.80329196	0.10575017	0.50379152	0.85067031	-0.20810298	0.60446979	0.86885595	0.0058437066	0.37924664	0.90413378	-0.015054474	0.56212328	1.3688572	-0.18004161	0.50940365	1.378034	0.070329957	0.48322779	1.3768584	-0.062189864	0.5508632	1.2247028	-0.48627953	0.26723364	1.2953022	0.26392872	0.78526761	1.2935008	-0.57632458	0.21889812	1.425214	0.47646204
293	1.168	0.039553961	-0.024495797	-0.12463293	0.86380508	0.038974998	-0.019933362	0.016332511	0.11479555	-0.16391256	0.72665312	0.058226012	0.038300082	0.056867416	0.11742403	-0.08936676	0.73187228	0.075573221	-0.050779914	-0.027728194	0.1544708	-0.1100501	0.67070495	0.030357633	0.0054932995	0.28528251	0.38875285	-0.21040802	0.77197927	0.45471991	0.01763086	0.31919727	0.34317439	-0.10231402	0.73066031	0.459871	-0.10480761	0.40427262	0.75319362	-0.23911296	0.59289508	0.80314706	0.10633759	0.5115621	0.85068547	-0.20777972	0.61178266	0.86901297	0.0063961634	0.38576763	0.90408076	-0.015884424	0.56934515	1.3686352	-0.18061053	0.51652007	1.3779744	0.07118979	0.49028236	1.377197	-0.06178561	0.55445715	1.221555	-0.48565017	0.27485494	1.2917052	0.26501726	0.78780832	1.2895477	-0.5786355	0.22527646	1.4219243	0.47732267
294	1.172	0.042992664	-0.019184253	-0.12530346	0.86397497	0.038889609	-0.019809157	0.022464084	0.12029274	-0.16447024	0.72697625	0.058103788	0.038375483	0.062920821	0.12225106	-0.089849024	0.73229686	0.075378848	-0.050776226	-0.0207633	0.16115276	-0.11059938	0.67078892	0.030516056	0.0055390867	0.29720266	0.38741654	-0.21238004	0.77695296	0.45323447	0.017809229	0.3305502	0.34226417	-0.1040902	0.73831365	0.46013791	-0.1056868	0.412693	0.75263051	-0.23955108	0.59851534	0.80312018	0.10706384	0.51927032	0.85069429	-0.2074609	0.61899401	0.86936688	0.0070235294	0.39226434	0.90392644	-0.016776377	0.57654727	1.3684642	-0.18121562	0.52362055	1.3780092	0.071996811	0.49729528	1.3776046	-0.061400328	0.55802276	1.2182274	-0.48494165	0.28256463	1.2882076	0.26597924	0.79019377	1.2853277	-0.58095645	0.23175572	1.4183305	0.47831565
295	1.176	0.047175169	-0.013447132	-0.12578272	0.86413563	0.038824923	-0.019706251	0.02893151	0.12596099	-0.1650599	0.72730083	0.058040775	0.03844609	0.069157712	0.12741655	-0.090344982	0.73273507	0.075209256	-0.050792988	-0.013664605	0.16789091	-0.11132913	0.67087732	0.030667194	0.0055261433	0.3092337	0.38612391	-0.21436015	0.78120092	0.45169217	0.018067214	0.34206879	0.34137849	-0.10589163	0.74585515	0.4599241	-0.10628972	0.42107164	0.75210404	-0.23996828	0.60399322	0.80323643	0.10790261	0.52692472	0.85070077	-0.20714653	0.62610663	0.86991849	0.0077331374	0.39870416	0.9037297	-0.017658076	0.58372569	1.3683352	-0.18183958	0.53071956	1.3781249	0.07275019	0.50426524	1.3780573	-0.060991674	0.56155786	1.2147263	-0.48413095	0.29034297	1.2848582	0.26683697	0.79242961	1.2808545	-0.58326883	0.23835397	1.4144284	0.4794286
